<svg id="visual" viewBox="0 0 960 540" width="960" height="540" xmlns="http://www.w3.org/2000/svg" xmlns:xlink="http://www.w3.org/1999/xlink" version="1.1"><rect x="0" y="0" width="960" height="540" fill="#001220"></rect><path d="M0 347L22.8 350.2C45.7 353.3 91.3 359.7 137 365.2C182.7 370.7 228.3 375.3 274 376.8C319.7 378.3 365.3 376.7 411.2 378.5C457 380.3 503 385.7 548.8 380.8C594.7 376 640.3 361 686 358.5C731.7 356 777.3 366 823 366.7C868.7 367.3 914.3 358.7 937.2 354.3L960 350L960 541L937.2 541C914.3 541 868.7 541 823 541C777.3 541 731.7 541 686 541C640.3 541 594.7 541 548.8 541C503 541 457 541 411.2 541C365.3 541 319.7 541 274 541C228.3 541 182.7 541 137 541C91.3 541 45.7 541 22.8 541L0 541Z" fill="#fa7268"></path><path d="M0 362L22.8 368.8C45.7 375.7 91.3 389.3 137 400.5C182.7 411.7 228.3 420.3 274 415.2C319.7 410 365.3 391 411.2 380C457 369 503 366 548.8 369.7C594.7 373.3 640.3 383.7 686 393.5C731.7 403.3 777.3 412.7 823 412.5C868.7 412.3 914.3 402.7 937.2 397.8L960 393L960 541L937.2 541C914.3 541 868.7 541 823 541C777.3 541 731.7 541 686 541C640.3 541 594.7 541 548.8 541C503 541 457 541 411.2 541C365.3 541 319.7 541 274 541C228.3 541 182.7 541 137 541C91.3 541 45.7 541 22.8 541L0 541Z" fill="#ef5f67"></path><path d="M0 393L22.8 402.8C45.7 412.7 91.3 432.3 137 434.7C182.7 437 228.3 422 274 418.8C319.7 415.7 365.3 424.3 411.2 423.2C457 422 503 411 548.8 415.3C594.7 419.7 640.3 439.3 686 441.7C731.7 444 777.3 429 823 421.8C868.7 414.7 914.3 415.3 937.2 415.7L960 416L960 541L937.2 541C914.3 541 868.7 541 823 541C777.3 541 731.7 541 686 541C640.3 541 594.7 541 548.8 541C503 541 457 541 411.2 541C365.3 541 319.7 541 274 541C228.3 541 182.7 541 137 541C91.3 541 45.7 541 22.8 541L0 541Z" fill="#e34c67"></path><path d="M0 478L22.8 478C45.7 478 91.3 478 137 472.5C182.7 467 228.3 456 274 450.5C319.7 445 365.3 445 411.2 452C457 459 503 473 548.8 479.5C594.7 486 640.3 485 686 477.7C731.7 470.3 777.3 456.7 823 453.5C868.7 450.3 914.3 457.7 937.2 461.3L960 465L960 541L937.2 541C914.3 541 868.7 541 823 541C777.3 541 731.7 541 686 541C640.3 541 594.7 541 548.8 541C503 541 457 541 411.2 541C365.3 541 319.7 541 274 541C228.3 541 182.7 541 137 541C91.3 541 45.7 541 22.8 541L0 541Z" fill="#d53867"></path><path d="M0 516L22.8 512.5C45.7 509 91.3 502 137 496.2C182.7 490.3 228.3 485.7 274 483.7C319.7 481.7 365.3 482.3 411.2 484.3C457 486.3 503 489.7 548.8 489.5C594.7 489.3 640.3 485.7 686 482.7C731.7 479.7 777.3 477.3 823 482.5C868.7 487.7 914.3 500.3 937.2 506.7L960 513L960 541L937.2 541C914.3 541 868.7 541 823 541C777.3 541 731.7 541 686 541C640.3 541 594.7 541 548.8 541C503 541 457 541 411.2 541C365.3 541 319.7 541 274 541C228.3 541 182.7 541 137 541C91.3 541 45.7 541 22.8 541L0 541Z" fill="#c62368"></path></svg>