<svg id="visual" viewBox="0 0 960 540" width="960" height="540" xmlns="http://www.w3.org/2000/svg" xmlns:xlink="http://www.w3.org/1999/xlink" version="1.1"><rect x="0" y="0" width="960" height="540" fill="#001220"></rect><path d="M0 328L22.8 335.5C45.7 343 91.3 358 137 363C182.7 368 228.3 363 274 362.7C319.7 362.3 365.3 366.7 411.2 360.2C457 353.7 503 336.3 548.8 339C594.7 341.7 640.3 364.3 686 370.5C731.7 376.7 777.3 366.3 823 368.8C868.7 371.3 914.3 386.7 937.2 394.3L960 402L960 541L937.2 541C914.3 541 868.7 541 823 541C777.3 541 731.7 541 686 541C640.3 541 594.7 541 548.8 541C503 541 457 541 411.2 541C365.3 541 319.7 541 274 541C228.3 541 182.7 541 137 541C91.3 541 45.7 541 22.8 541L0 541Z" fill="#fa7268"></path><path d="M0 372L22.8 374.2C45.7 376.3 91.3 380.7 137 387C182.7 393.3 228.3 401.7 274 403C319.7 404.3 365.3 398.7 411.2 399C457 399.3 503 405.7 548.8 405.7C594.7 405.7 640.3 399.3 686 390C731.7 380.7 777.3 368.3 823 366.7C868.7 365 914.3 374 937.2 378.5L960 383L960 541L937.2 541C914.3 541 868.7 541 823 541C777.3 541 731.7 541 686 541C640.3 541 594.7 541 548.8 541C503 541 457 541 411.2 541C365.3 541 319.7 541 274 541C228.3 541 182.7 541 137 541C91.3 541 45.7 541 22.8 541L0 541Z" fill="#ef5f67"></path><path d="M0 400L22.8 405.7C45.7 411.3 91.3 422.7 137 423.7C182.7 424.7 228.3 415.3 274 410.7C319.7 406 365.3 406 411.2 410.3C457 414.7 503 423.3 548.8 426C594.7 428.7 640.3 425.3 686 419.2C731.7 413 777.3 404 823 403.3C868.7 402.7 914.3 410.3 937.2 414.2L960 418L960 541L937.2 541C914.3 541 868.7 541 823 541C777.3 541 731.7 541 686 541C640.3 541 594.7 541 548.8 541C503 541 457 541 411.2 541C365.3 541 319.7 541 274 541C228.3 541 182.7 541 137 541C91.3 541 45.7 541 22.8 541L0 541Z" fill="#e34c67"></path><path d="M0 468L22.8 465.5C45.7 463 91.3 458 137 452.3C182.7 446.7 228.3 440.3 274 438.2C319.7 436 365.3 438 411.2 441.3C457 444.7 503 449.3 548.8 448.7C594.7 448 640.3 442 686 444.5C731.7 447 777.3 458 823 458.2C868.7 458.3 914.3 447.7 937.2 442.3L960 437L960 541L937.2 541C914.3 541 868.7 541 823 541C777.3 541 731.7 541 686 541C640.3 541 594.7 541 548.8 541C503 541 457 541 411.2 541C365.3 541 319.7 541 274 541C228.3 541 182.7 541 137 541C91.3 541 45.7 541 22.8 541L0 541Z" fill="#d53867"></path><path d="M0 503L22.8 498.8C45.7 494.7 91.3 486.3 137 488C182.7 489.7 228.3 501.3 274 503.5C319.7 505.7 365.3 498.3 411.2 496.2C457 494 503 497 548.8 498.8C594.7 500.7 640.3 501.3 686 503.2C731.7 505 777.3 508 823 503.3C868.7 498.7 914.3 486.3 937.2 480.2L960 474L960 541L937.2 541C914.3 541 868.7 541 823 541C777.3 541 731.7 541 686 541C640.3 541 594.7 541 548.8 541C503 541 457 541 411.2 541C365.3 541 319.7 541 274 541C228.3 541 182.7 541 137 541C91.3 541 45.7 541 22.8 541L0 541Z" fill="#c62368"></path></svg>