<svg id="visual" viewBox="0 0 960 540" width="960" height="540" xmlns="http://www.w3.org/2000/svg" xmlns:xlink="http://www.w3.org/1999/xlink" version="1.1"><rect x="0" y="0" width="960" height="540" fill="#001220"></rect><path d="M0 326L22.8 325C45.7 324 91.3 322 137 324.2C182.7 326.3 228.3 332.7 274 345.7C319.7 358.7 365.3 378.3 411.2 378.3C457 378.3 503 358.7 548.8 356.7C594.7 354.7 640.3 370.3 686 367C731.7 363.7 777.3 341.3 823 330.2C868.7 319 914.3 319 937.2 319L960 319L960 541L937.2 541C914.3 541 868.7 541 823 541C777.3 541 731.7 541 686 541C640.3 541 594.7 541 548.8 541C503 541 457 541 411.2 541C365.3 541 319.7 541 274 541C228.3 541 182.7 541 137 541C91.3 541 45.7 541 22.8 541L0 541Z" fill="#fa7268"></path><path d="M0 426L22.8 420.8C45.7 415.7 91.3 405.3 137 402C182.7 398.7 228.3 402.3 274 404.3C319.7 406.3 365.3 406.7 411.2 401.2C457 395.7 503 384.3 548.8 386.2C594.7 388 640.3 403 686 402.7C731.7 402.3 777.3 386.7 823 386.8C868.7 387 914.3 403 937.2 411L960 419L960 541L937.2 541C914.3 541 868.7 541 823 541C777.3 541 731.7 541 686 541C640.3 541 594.7 541 548.8 541C503 541 457 541 411.2 541C365.3 541 319.7 541 274 541C228.3 541 182.7 541 137 541C91.3 541 45.7 541 22.8 541L0 541Z" fill="#ef5f67"></path><path d="M0 446L22.8 438.7C45.7 431.3 91.3 416.7 137 408.8C182.7 401 228.3 400 274 404.5C319.7 409 365.3 419 411.2 428.8C457 438.7 503 448.3 548.8 442.7C594.7 437 640.3 416 686 409.3C731.7 402.7 777.3 410.3 823 418.3C868.7 426.3 914.3 434.7 937.2 438.8L960 443L960 541L937.2 541C914.3 541 868.7 541 823 541C777.3 541 731.7 541 686 541C640.3 541 594.7 541 548.8 541C503 541 457 541 411.2 541C365.3 541 319.7 541 274 541C228.3 541 182.7 541 137 541C91.3 541 45.7 541 22.8 541L0 541Z" fill="#e34c67"></path><path d="M0 441L22.8 445.5C45.7 450 91.3 459 137 463.7C182.7 468.3 228.3 468.7 274 471.5C319.7 474.3 365.3 479.7 411.2 481.5C457 483.3 503 481.7 548.8 477.5C594.7 473.3 640.3 466.7 686 464.5C731.7 462.3 777.3 464.7 823 462.3C868.7 460 914.3 453 937.2 449.5L960 446L960 541L937.2 541C914.3 541 868.7 541 823 541C777.3 541 731.7 541 686 541C640.3 541 594.7 541 548.8 541C503 541 457 541 411.2 541C365.3 541 319.7 541 274 541C228.3 541 182.7 541 137 541C91.3 541 45.7 541 22.8 541L0 541Z" fill="#d53867"></path><path d="M0 472L22.8 477C45.7 482 91.3 492 137 492.7C182.7 493.3 228.3 484.7 274 482.8C319.7 481 365.3 486 411.2 491.7C457 497.3 503 503.7 548.8 501.3C594.7 499 640.3 488 686 487.8C731.7 487.7 777.3 498.3 823 498.5C868.7 498.7 914.3 488.3 937.2 483.2L960 478L960 541L937.2 541C914.3 541 868.7 541 823 541C777.3 541 731.7 541 686 541C640.3 541 594.7 541 548.8 541C503 541 457 541 411.2 541C365.3 541 319.7 541 274 541C228.3 541 182.7 541 137 541C91.3 541 45.7 541 22.8 541L0 541Z" fill="#c62368"></path></svg>